<svg width="89" height="90" viewBox="0 0 89 90" fill="none" xmlns="http://www.w3.org/2000/svg">
<path d="M54.8362 73.2815C60.6926 76.487 65.8429 72.6019 64.7229 65.8029L62.7118 53.5952L71.2308 44.9497C75.9686 40.1414 74.0112 33.8411 67.4544 32.8491L55.6815 31.0681L50.4425 20.016C47.5079 13.8253 41.1361 13.7587 38.1959 19.9611L32.9309 31.0681L21.158 32.8491C14.6104 33.8397 12.6371 40.1346 17.3817 44.9497L25.9006 53.5952L23.8896 65.8029C22.7711 72.5923 27.9116 76.4915 33.7762 73.2815L44.3062 67.5178L54.8362 73.2815Z" fill="#6C5FBC"/>
<mask id="mask0_1_523" style="mask-type:luminance" maskUnits="userSpaceOnUse" x="14" y="15" width="60" height="60">
<path d="M54.8362 73.2815C60.6926 76.487 65.8429 72.6019 64.7229 65.8029L62.7118 53.5952L71.2308 44.9497C75.9686 40.1414 74.0112 33.8411 67.4544 32.8491L55.6815 31.0681L50.4425 20.016C47.5079 13.8253 41.1361 13.7587 38.1959 19.9611L32.9309 31.0681L21.158 32.8491C14.6104 33.8397 12.6371 40.1346 17.3817 44.9497L25.9006 53.5952L23.8896 65.8029C22.7711 72.5923 27.9116 76.4915 33.7762 73.2815L44.3062 67.5178L54.8362 73.2815Z" fill="white"/>
</mask>
<g mask="url(#mask0_1_523)">
</g>
</svg>
