<svg width="517" height="221" viewBox="0 0 517 221" fill="none" xmlns="http://www.w3.org/2000/svg">
<path d="M130.524 13.5359L133.368 10.6919C133.95 10.1106 134.411 9.42039 134.727 8.6606C135.042 7.9008 135.204 7.08636 135.204 6.26385C135.204 5.44134 135.042 4.6269 134.727 3.86711C134.411 3.10731 133.95 2.41707 133.368 1.83585C132.787 1.25387 132.096 0.792166 131.337 0.477154C130.577 0.162142 129.762 0 128.94 0C128.117 0 127.303 0.162142 126.543 0.477154C125.783 0.792166 125.093 1.25387 124.512 1.83585L121.668 4.67985C120.495 5.85525 119.837 7.44767 119.837 9.10785C119.837 10.768 120.495 12.3605 121.668 13.5359C122.843 14.7083 124.436 15.3667 126.096 15.3667C127.756 15.3667 129.348 14.7083 130.524 13.5359Z" fill="#6C5FBC"/>
<path d="M52.6497 188.4C51.4743 187.228 49.8819 186.569 48.2217 186.569C46.5615 186.569 44.9691 187.228 43.7937 188.4L39.5937 192.636C38.4202 193.811 37.7612 195.403 37.7617 197.063C37.7623 198.724 38.4224 200.316 39.5967 201.489C40.7711 202.663 42.3636 203.322 44.0239 203.321C45.6841 203.321 47.2762 202.661 48.4497 201.486L52.6497 197.256C53.2317 196.675 53.6934 195.985 54.0084 195.225C54.3234 194.465 54.4856 193.651 54.4856 192.828C54.4856 192.006 54.3234 191.191 54.0084 190.431C53.6934 189.672 53.2317 188.981 52.6497 188.4Z" fill="#6C5FBC"/>
<path d="M211.938 91.5295L207.708 95.7295C207.103 96.3057 206.619 96.997 206.285 97.7629C205.952 98.5288 205.774 99.3537 205.764 100.189C205.754 101.025 205.911 101.853 206.226 102.627C206.541 103.401 207.008 104.104 207.598 104.695C208.189 105.286 208.892 105.752 209.666 106.067C210.44 106.382 211.269 106.539 212.104 106.529C212.939 106.519 213.764 106.342 214.53 106.008C215.296 105.674 215.987 105.19 216.564 104.585L220.794 100.355C221.921 99.1716 222.541 97.5939 222.521 95.9591C222.501 94.3244 221.843 92.7622 220.687 91.6062C219.531 90.4501 217.969 89.7919 216.334 89.772C214.699 89.752 213.122 90.372 211.938 91.4995V91.5295Z" fill="#6C5FBC"/>
<path d="M18.9543 160.524L21.1923 158.292C22.3198 157.108 22.9398 155.53 22.9198 153.896C22.8999 152.261 22.2416 150.699 21.0856 149.543C19.9296 148.387 18.3674 147.728 16.7327 147.708C15.0979 147.689 13.5202 148.309 12.3363 149.436L10.0983 151.668C9.49331 152.244 9.0097 152.936 8.67592 153.701C8.34214 154.467 8.16495 155.292 8.15476 156.128C8.14458 156.963 8.30161 157.792 8.61661 158.566C8.93161 159.34 9.39822 160.043 9.98898 160.633C10.5797 161.224 11.2827 161.691 12.0565 162.006C12.8303 162.321 13.6593 162.478 14.4947 162.468C15.3301 162.457 16.155 162.28 16.9209 161.946C17.6867 161.613 18.3781 161.129 18.9543 160.524Z" fill="#6C5FBC"/>
<path d="M193.368 39.2458L185.862 46.7518C184.678 47.8793 183.1 48.4993 181.466 48.4794C179.831 48.4594 178.269 47.8012 177.113 46.6452C175.957 45.4891 175.298 43.927 175.278 42.2922C175.259 40.6575 175.879 39.0797 177.006 37.8958L183.84 31.0618C184.422 30.4803 184.884 29.7899 185.199 29.03C185.514 28.2701 185.676 27.4556 185.676 26.633C185.677 25.8103 185.515 24.9957 185.2 24.2356C184.886 23.4754 184.424 22.7847 183.843 22.2028C183.261 21.6209 182.571 21.1593 181.811 20.8442C181.051 20.5292 180.237 20.3669 179.414 20.3666C178.591 20.3663 177.777 20.528 177.017 20.8426C176.257 21.1572 175.566 21.6183 174.984 22.1998L161.082 36.1078C160.501 36.6893 159.811 37.1507 159.052 37.4655C158.292 37.7804 157.478 37.9426 156.656 37.9429C155.834 37.9431 155.02 37.7815 154.26 37.4671C153.501 37.1528 152.81 36.6919 152.229 36.1108C151.647 35.5297 151.186 34.8398 150.871 34.0804C150.556 33.321 150.394 32.507 150.394 31.685C150.394 30.8629 150.555 30.0488 150.87 29.2892C151.184 28.5296 151.645 27.8393 152.226 27.2578L162.372 17.1058C162.954 16.5246 163.416 15.8344 163.731 15.0746C164.046 14.3148 164.208 13.5003 164.208 12.6778C164.208 11.8553 164.046 11.0409 163.731 10.2811C163.416 9.52129 162.954 8.83105 162.372 8.24983C161.197 7.07738 159.604 6.41895 157.944 6.41895C156.284 6.41895 154.691 7.07738 153.516 8.24983L125.274 36.4918C124.09 37.6193 122.512 38.2393 120.878 38.2194C119.243 38.1994 117.681 37.5412 116.525 36.3852C115.369 35.2291 114.71 33.667 114.69 32.0322C114.671 30.3975 115.29 28.8197 116.418 27.6358L117.18 26.8798C117.763 26.2983 118.226 25.6077 118.542 24.8473C118.858 24.087 119.021 23.2718 119.023 22.4483C119.024 21.6248 118.863 20.8092 118.549 20.048C118.234 19.2868 117.773 18.5949 117.192 18.0118C116.61 17.4288 115.92 16.9659 115.159 16.6498C114.399 16.3336 113.584 16.1703 112.76 16.1692C111.937 16.1681 111.121 16.3292 110.36 16.6433C109.599 16.9574 108.907 17.4183 108.324 17.9998L95.25 31.0978C94.6681 31.6793 93.9774 32.1405 93.2173 32.4551C92.4571 32.7696 91.6425 32.9314 90.8199 32.9311C89.9972 32.9308 89.1827 32.7685 88.4228 32.4534C87.6629 32.1384 86.9725 31.6767 86.391 31.0948C85.2166 29.9197 84.5572 28.3261 84.5577 26.6647C84.5583 25.0033 85.2188 23.4102 86.394 22.2358L91.41 17.2198C92.015 16.6437 92.4986 15.9523 92.8324 15.1864C93.1661 14.4205 93.3433 13.5956 93.3535 12.7602C93.3637 11.9248 93.2067 11.0958 92.8917 10.322C92.5767 9.54823 92.1101 8.84527 91.5193 8.25452C90.9286 7.66376 90.2256 7.19715 89.4518 6.88215C88.678 6.56714 87.849 6.41011 87.0136 6.4203C86.1782 6.43049 85.3533 6.60768 84.5874 6.94146C83.8216 7.27524 83.1302 7.75885 82.554 8.36383L6.702 84.1978C5.52683 85.3746 4.86725 86.97 4.86838 88.6331C4.8695 90.2962 5.53123 91.8907 6.708 93.0658C7.88477 94.241 9.48017 94.9006 11.1432 94.8995C12.8063 94.8983 14.4008 94.2366 15.576 93.0598L20.088 88.5418C20.6699 87.9603 21.3606 87.4992 22.1207 87.1846C22.8809 86.8701 23.6955 86.7083 24.5181 86.7086C25.3408 86.7089 26.1553 86.8712 26.9152 87.1862C27.6751 87.5013 28.3655 87.9629 28.947 88.5448C29.5285 89.1267 29.9897 89.8175 30.3042 90.5776C30.6188 91.3377 30.7805 92.1523 30.7803 92.975C30.78 93.7976 30.6177 94.6121 30.3026 95.372C29.9875 96.1319 29.5259 96.8223 28.944 97.4038L1.944 124.404C1.33902 124.98 0.855402 125.671 0.521625 126.437C0.187848 127.203 0.0106518 128.028 0.000465642 128.863C-0.00972056 129.699 0.147309 130.528 0.462313 131.302C0.777316 132.075 1.24393 132.778 1.83468 133.369C2.42544 133.96 3.1284 134.427 3.9022 134.742C4.67599 135.057 5.50498 135.214 6.34037 135.203C7.17577 135.193 8.00068 135.016 8.76656 134.682C9.53245 134.348 10.2238 133.865 10.8 133.26L25.044 119.016C26.2279 117.888 27.8056 117.268 29.4404 117.288C31.0751 117.308 32.6373 117.967 33.7933 119.123C34.9493 120.279 35.6076 121.841 35.6275 123.475C35.6475 125.11 35.0275 126.688 33.9 127.872L24.57 137.196C23.3975 138.371 22.7391 139.964 22.7391 141.624C22.7391 143.284 23.3975 144.876 24.57 146.052C25.1512 146.634 25.8415 147.096 26.6013 147.411C27.361 147.726 28.1755 147.888 28.998 147.888C29.8205 147.888 30.6349 147.726 31.3947 147.411C32.1545 147.096 32.8448 146.634 33.426 146.052L36.834 142.644C37.4155 142.062 38.106 141.6 38.866 141.284C39.6261 140.969 40.4408 140.806 41.2638 140.805C42.0867 140.805 42.9016 140.966 43.6621 141.281C44.4226 141.595 45.1137 142.056 45.696 142.638C46.2783 143.219 46.7403 143.91 47.0558 144.67C47.3712 145.43 47.5338 146.245 47.5344 147.068C47.5349 147.891 47.3734 148.705 47.059 149.466C46.7446 150.226 46.2835 150.918 45.702 151.5L24.66 172.53C23.5325 173.714 22.9125 175.291 22.9325 176.926C22.9524 178.561 23.6107 180.123 24.7667 181.279C25.9227 182.435 27.4849 183.093 29.1196 183.113C30.7544 183.133 32.3321 182.513 33.516 181.386L51.006 163.902C52.1804 162.728 53.7729 162.069 55.4331 162.07C57.0934 162.07 58.6854 162.73 59.859 163.905C61.0326 165.079 61.6916 166.672 61.691 168.332C61.6904 169.992 61.0304 171.584 59.856 172.758L55.056 177.558C53.9285 178.742 53.3085 180.319 53.3285 181.954C53.3484 183.589 54.0067 185.151 55.1627 186.307C56.3187 187.463 57.8809 188.121 59.5156 188.141C61.1504 188.161 62.7281 187.541 63.912 186.414L78.756 171.6C80.0247 170.63 81.6147 170.178 83.2038 170.337C84.793 170.495 86.2625 171.252 87.3145 172.454C88.3666 173.655 88.9225 175.212 88.8697 176.808C88.8168 178.404 88.1592 179.92 87.03 181.05L63.246 204.834C62.6048 205.401 62.0866 206.093 61.7234 206.868C61.3601 207.643 61.1596 208.484 61.134 209.34C61.1085 210.195 61.2585 211.047 61.5749 211.842C61.8913 212.637 62.3672 213.359 62.9734 213.963C63.5797 214.568 64.3032 215.041 65.0996 215.355C65.8959 215.668 66.748 215.816 67.6034 215.787C68.4588 215.759 69.2993 215.555 70.073 215.189C70.8467 214.823 71.5373 214.303 72.102 213.66L101.928 183.834C102.509 183.253 103.2 182.792 103.959 182.478C104.719 182.163 105.533 182.002 106.355 182.002C107.177 182.002 107.991 182.164 108.751 182.479C109.51 182.794 110.2 183.255 110.781 183.837C111.362 184.418 111.823 185.109 112.137 185.868C112.452 186.628 112.613 187.442 112.613 188.264C112.613 189.086 112.451 189.9 112.136 190.659C111.821 191.419 111.359 192.109 110.778 192.69L93.888 209.586C92.7605 210.77 92.1405 212.347 92.1605 213.982C92.1804 215.617 92.8387 217.179 93.9947 218.335C95.1507 219.491 96.7129 220.149 98.3476 220.169C99.9824 220.189 101.56 219.569 102.744 218.442L132.354 188.826C133.503 188.42 134.744 188.349 135.932 188.622C137.12 188.895 138.206 189.501 139.062 190.368C139.659 190.946 140.135 191.637 140.463 192.401C140.791 193.165 140.964 193.986 140.972 194.817C140.98 195.648 140.822 196.473 140.509 197.243C140.195 198.013 139.732 198.712 139.146 199.302L132.702 205.752C131.531 206.962 130.883 208.585 130.897 210.269C130.911 211.953 131.586 213.564 132.777 214.755C133.968 215.946 135.579 216.621 137.263 216.635C138.947 216.649 140.569 216.001 141.78 214.83L215.4 141.21C216.544 139.995 217.169 138.382 217.144 136.714C217.119 135.045 216.446 133.452 215.266 132.272C214.087 131.091 212.494 130.417 210.825 130.39C209.157 130.364 207.544 130.989 206.328 132.132L200.736 137.718C200.146 138.304 199.446 138.767 198.675 139.081C197.905 139.394 197.08 139.552 196.248 139.544C195.417 139.536 194.595 139.363 193.831 139.035C193.066 138.708 192.375 138.231 191.796 137.634C190.93 136.778 190.326 135.693 190.054 134.506C189.782 133.319 189.853 132.08 190.26 130.932L205.092 116.094C206.266 114.92 206.926 113.328 206.927 111.668C206.928 110.008 206.269 108.415 205.095 107.241C204.514 106.659 203.824 106.198 203.065 105.883C202.305 105.568 201.491 105.406 200.669 105.406C199.009 105.405 197.416 106.064 196.242 107.238L188.718 114.762C187.534 115.889 185.956 116.509 184.322 116.489C182.687 116.469 181.125 115.811 179.969 114.655C178.813 113.499 178.154 111.937 178.134 110.302C178.115 108.667 178.735 107.09 179.862 105.906L215.502 70.2478C216.107 69.6717 216.591 68.9803 216.924 68.2144C217.258 67.4485 217.435 66.6236 217.446 65.7882C217.456 64.9528 217.299 64.1238 216.984 63.35C216.669 62.5762 216.202 61.8733 215.611 61.2825C215.021 60.6918 214.318 60.2252 213.544 59.9101C212.77 59.5951 211.941 59.4381 211.106 59.4483C210.27 59.4585 209.445 59.6357 208.679 59.9695C207.914 60.3032 207.222 60.7869 206.646 61.3918L198.648 69.3898C197.519 70.519 196.002 71.1767 194.406 71.2295C192.81 71.2824 191.253 70.7264 190.052 69.6744C188.85 68.6223 188.093 67.1528 187.935 65.5637C187.776 63.9745 188.228 62.3845 189.198 61.1158L202.212 48.1018C202.817 47.5257 203.301 46.8343 203.634 46.0684C203.968 45.3025 204.145 44.4776 204.156 43.6422C204.166 42.8068 204.009 41.9778 203.694 41.204C203.379 40.4302 202.912 39.7273 202.321 39.1365C201.731 38.5458 201.028 38.0792 200.254 37.7641C199.48 37.4491 198.651 37.2921 197.816 37.3023C196.98 37.3125 196.155 37.4897 195.389 37.8235C194.624 38.1572 193.932 38.6409 193.356 39.2458H193.368Z" fill="#6C5FBC"/>
<path d="M50.7236 33.7319L56.3936 28.0678C57.0846 27.3768 57.6328 26.5565 58.0068 25.6536C58.3807 24.7508 58.5732 23.7831 58.5732 22.8058C58.5732 21.8286 58.3807 20.8609 58.0068 19.9581C57.6328 19.0552 57.0846 18.2349 56.3936 17.5438C55.7026 16.8528 54.8822 16.3047 53.9794 15.9307C53.0765 15.5567 52.1089 15.3643 51.1316 15.3643C50.1544 15.3643 49.1867 15.5567 48.2838 15.9307C47.381 16.3047 46.5606 16.8528 45.8696 17.5438L40.2056 23.2138C38.8717 24.6209 38.1398 26.4931 38.1657 28.4317C38.1916 30.3704 38.9732 32.2223 40.3442 33.5933C41.7151 34.9643 43.5671 35.7459 45.5057 35.7718C47.4444 35.7976 49.3166 35.0657 50.7236 33.7319Z" fill="#6C5FBC"/>
<path d="M174.642 190.356L167.406 197.598C164.406 200.598 164.154 205.56 167.124 208.626C167.836 209.362 168.688 209.949 169.63 210.352C170.571 210.755 171.584 210.967 172.608 210.975C173.632 210.983 174.648 210.786 175.596 210.398C176.543 210.009 177.404 209.435 178.128 208.71L185.37 201.474C188.37 198.474 188.616 193.506 185.652 190.446C184.939 189.711 184.086 189.124 183.145 188.721C182.203 188.317 181.19 188.105 180.166 188.097C179.141 188.089 178.125 188.284 177.177 188.672C176.228 189.06 175.367 189.632 174.642 190.356Z" fill="#6C5FBC"/>
<path fill-rule="evenodd" clip-rule="evenodd" d="M55.1016 68.5002V77.8002H112.102H169.102V68.5002V59.2002H112.102H55.1016V68.5002ZM130.702 69.7002C130.702 71.7 130.802 71.8002 132.802 71.8002C134.801 71.8002 134.902 71.7 134.902 69.7002C134.902 67.7004 134.801 67.6002 132.802 67.6002C130.802 67.6002 130.702 67.7004 130.702 69.7002ZM142.102 69.7002C142.102 71.7504 142.159 71.8002 144.502 71.8002C146.845 71.8002 146.902 71.7504 146.902 69.7002C146.902 67.65 146.845 67.6002 144.502 67.6002C142.159 67.6002 142.102 67.65 142.102 69.7002ZM154.102 69.7002C154.102 71.7 154.202 71.8002 156.202 71.8002C158.201 71.8002 158.302 71.7 158.302 69.7002C158.302 67.7004 158.201 67.6002 156.202 67.6002C154.202 67.6002 154.102 67.7004 154.102 69.7002ZM55.1016 110.8V140.2H65.9016H76.7016V134.2V128.2H80.205C83.4162 128.2 83.7696 128.067 84.4362 126.604C85.1124 125.12 84.9828 124.825 82.5966 122.393L80.0298 119.778L87.0546 112.753L94.0794 105.728L96.6948 108.295C99.126 110.681 99.4218 110.811 100.906 110.135C102.368 109.468 102.502 109.115 102.502 105.904V102.4H112.402H122.302V106.019C122.302 109.219 122.458 109.699 123.652 110.16C124.774 110.593 125.433 110.264 127.562 108.205L130.124 105.728L137.149 112.753L144.173 119.778L141.709 122.339C139.508 124.628 139.307 125.076 139.823 126.55C140.366 128.099 140.619 128.2 143.951 128.2H147.502V134.2V140.2H158.302H169.102V110.8V81.4002H112.102H55.1016V110.8ZM104.891 108.55L104.881 111.7L101.622 112.96L98.3628 114.221L96.4146 112.21C95.343 111.105 94.1754 110.2 93.8196 110.2C93.4644 110.2 91.0296 112.357 88.4088 114.993L83.6442 119.786L85.9632 122.161L88.2822 124.536L87.039 127.418C85.8096 130.267 85.758 130.304 82.5984 130.6L79.4016 130.9L79.233 137.92L79.0638 144.939L82.4526 145.12L85.8408 145.3L87.0354 148.51L88.2294 151.718L86.0718 153.929L83.9136 156.139L88.9998 161.198L94.0866 166.259L96.3702 164.029L98.6538 161.799L101.777 163.118L104.902 164.438V167.619V170.8H112.102H119.302V167.619V164.438L122.426 163.118L125.549 161.799L127.833 164.029L130.117 166.259L135.203 161.198L140.29 156.139L138.119 153.916L135.949 151.693L137.335 148.346L138.722 145H141.912H145.102V137.83V130.66L141.739 130.48L138.376 130.3L137.246 127.318L136.117 124.335L138.338 122.06L140.559 119.786L135.794 114.993C133.174 112.357 130.739 110.2 130.384 110.2C130.028 110.2 128.86 111.105 127.789 112.21L125.84 114.221L122.581 112.96L119.322 111.7L119.312 108.55L119.302 105.4H112.102H104.902L104.891 108.55ZM107.602 119.121C101.597 120.699 96.1926 125.467 94.0884 131.043C92.3058 135.767 92.6286 142.175 94.8702 146.565C96.8418 150.425 101.661 154.801 105.312 156.045C108.904 157.269 115.299 157.269 118.891 156.045C122.515 154.81 127.335 150.453 129.379 146.565C130.78 143.9 130.991 142.796 130.993 138.1C130.995 133.827 130.724 132.112 129.697 129.883C128.026 126.259 123.995 122.244 120.269 120.494C117.1 119.005 110.686 118.31 107.602 119.121ZM110.047 123.35C108.737 124.798 106.702 131.248 106.702 133.954V136H112.158H117.614L117.182 132.862C116.945 131.137 116.369 128.644 115.903 127.322C114.125 122.28 112.198 120.973 110.047 123.35ZM102.632 125.175C99.9624 127.109 97.3356 131.079 96.7332 134.092L96.3516 136H99.69H103.028L103.395 133.15C103.597 131.583 104.242 128.747 104.828 126.85C105.415 124.953 105.712 123.4 105.488 123.4C105.265 123.4 103.979 124.199 102.632 125.175ZM118.102 123.661C118.102 123.805 118.4 124.682 118.765 125.611C119.13 126.54 119.755 129.19 120.153 131.5L120.877 135.7L124.371 135.883L127.865 136.065L127.477 134.124C126.868 131.081 124.252 127.117 121.571 125.175C119.314 123.539 118.102 123.011 118.102 123.661ZM96.5016 140.519C96.5016 144.122 100.496 149.889 104.419 151.948L106.036 152.797L104.897 149.488C104.271 147.668 103.576 144.563 103.352 142.589L102.947 139H99.7242C96.6756 139 96.5016 139.082 96.5016 140.519ZM106.891 142.883C107.31 147.374 109.346 152.567 111.043 153.476C113.54 154.812 116.418 149.624 117.289 142.217L117.667 139H112.097H106.528L106.891 142.883ZM120.902 139.4C120.682 139.62 120.502 140.779 120.502 141.974C120.502 143.989 119.362 149.218 118.357 151.811C117.951 152.859 118.027 152.87 119.709 152C123.536 150.02 127.702 144.038 127.702 140.519C127.702 139.084 127.526 139 124.502 139C122.741 139 121.121 139.18 120.902 139.4Z" fill="white"/>
<path d="M271.808 127.28C264.811 127.28 258.112 126.299 251.712 124.336C245.312 122.288 240.235 119.685 236.48 116.528L242.24 103.6C245.824 106.416 250.261 108.763 255.552 110.64C260.843 112.517 266.261 113.456 271.808 113.456C276.501 113.456 280.299 112.944 283.2 111.92C286.101 110.896 288.235 109.531 289.6 107.824C290.965 106.032 291.648 104.027 291.648 101.808C291.648 99.0773 290.667 96.9013 288.704 95.28C286.741 93.5733 284.181 92.2507 281.024 91.312C277.952 90.288 274.496 89.3493 270.656 88.496C266.901 87.6427 263.104 86.6613 259.264 85.552C255.509 84.3573 252.053 82.864 248.896 81.072C245.824 79.1947 243.307 76.72 241.344 73.648C239.381 70.576 238.4 66.6507 238.4 61.872C238.4 57.008 239.68 52.5707 242.24 48.56C244.885 44.464 248.853 41.2213 254.144 38.832C259.52 36.3573 266.304 35.12 274.496 35.12C279.872 35.12 285.205 35.8027 290.496 37.168C295.787 38.5333 300.395 40.496 304.32 43.056L299.072 55.984C295.061 53.5947 290.923 51.8453 286.656 50.736C282.389 49.5413 278.293 48.944 274.368 48.944C269.76 48.944 266.005 49.4987 263.104 50.608C260.288 51.7173 258.197 53.168 256.832 54.96C255.552 56.752 254.912 58.8 254.912 61.104C254.912 63.8347 255.851 66.0533 257.728 67.76C259.691 69.3813 262.208 70.6613 265.28 71.6C268.437 72.5387 271.936 73.4773 275.776 74.416C279.616 75.2693 283.413 76.2507 287.168 77.36C291.008 78.4693 294.464 79.92 297.536 81.712C300.693 83.504 303.211 85.936 305.088 89.008C307.051 92.08 308.032 95.9627 308.032 100.656C308.032 105.435 306.709 109.872 304.064 113.968C301.504 117.979 297.536 121.221 292.16 123.696C286.784 126.085 280 127.28 271.808 127.28ZM339.892 73.648H384.436V87.344H339.892V73.648ZM341.172 112.048H391.732V126H324.532V36.4H389.94V50.352H341.172V112.048ZM452.266 127.28C445.269 127.28 438.826 126.128 432.938 123.824C427.05 121.52 421.93 118.32 417.578 114.224C413.226 110.043 409.855 105.179 407.466 99.632C405.077 94 403.882 87.856 403.882 81.2C403.882 74.544 405.077 68.4427 407.466 62.896C409.855 57.264 413.226 52.4 417.578 48.304C421.93 44.1227 427.05 40.88 432.938 38.576C438.826 36.272 445.226 35.12 452.138 35.12C459.135 35.12 465.535 36.272 471.338 38.576C477.226 40.88 482.346 44.1227 486.698 48.304C491.05 52.4 494.421 57.264 496.81 62.896C499.199 68.4427 500.394 74.544 500.394 81.2C500.394 87.856 499.199 94 496.81 99.632C494.421 105.264 491.05 110.128 486.698 114.224C482.346 118.32 477.226 121.52 471.338 123.824C465.535 126.128 459.178 127.28 452.266 127.28ZM452.138 112.688C456.661 112.688 460.842 111.92 464.682 110.384C468.522 108.848 471.85 106.672 474.666 103.856C477.482 100.955 479.658 97.6267 481.194 93.872C482.815 90.032 483.626 85.808 483.626 81.2C483.626 76.592 482.815 72.4107 481.194 68.656C479.658 64.816 477.482 61.488 474.666 58.672C471.85 55.7707 468.522 53.552 464.682 52.016C460.842 50.48 456.661 49.712 452.138 49.712C447.615 49.712 443.434 50.48 439.594 52.016C435.839 53.552 432.511 55.7707 429.61 58.672C426.794 61.488 424.575 64.816 422.954 68.656C421.418 72.4107 420.65 76.592 420.65 81.2C420.65 85.7227 421.418 89.904 422.954 93.744C424.575 97.584 426.794 100.955 429.61 103.856C432.426 106.672 435.754 108.848 439.594 110.384C443.434 111.92 447.615 112.688 452.138 112.688Z" fill="#6C5FBC"/>
<path d="M248.272 189V158.32H236.208V152.6H267.096V158.32H255.032V189H248.272ZM281.182 189.364C278.339 189.364 275.808 188.757 273.59 187.544C271.371 186.296 269.62 184.597 268.338 182.448C267.055 180.299 266.414 177.855 266.414 175.116C266.414 172.343 267.055 169.899 268.338 167.784C269.62 165.635 271.371 163.953 273.59 162.74C275.808 161.527 278.339 160.92 281.182 160.92C284.059 160.92 286.607 161.527 288.826 162.74C291.079 163.953 292.83 165.617 294.078 167.732C295.36 169.847 296.002 172.308 296.002 175.116C296.002 177.855 295.36 180.299 294.078 182.448C292.83 184.597 291.079 186.296 288.826 187.544C286.607 188.757 284.059 189.364 281.182 189.364ZM281.182 183.8C282.776 183.8 284.198 183.453 285.446 182.76C286.694 182.067 287.664 181.061 288.358 179.744C289.086 178.427 289.45 176.884 289.45 175.116C289.45 173.313 289.086 171.771 288.358 170.488C287.664 169.171 286.694 168.165 285.446 167.472C284.198 166.779 282.794 166.432 281.234 166.432C279.639 166.432 278.218 166.779 276.97 167.472C275.756 168.165 274.786 169.171 274.058 170.488C273.33 171.771 272.966 173.313 272.966 175.116C272.966 176.884 273.33 178.427 274.058 179.744C274.786 181.061 275.756 182.067 276.97 182.76C278.218 183.453 279.622 183.8 281.182 183.8ZM314.697 189.364C311.854 189.364 309.324 188.757 307.105 187.544C304.886 186.296 303.136 184.597 301.853 182.448C300.57 180.299 299.929 177.855 299.929 175.116C299.929 172.343 300.57 169.899 301.853 167.784C303.136 165.635 304.886 163.953 307.105 162.74C309.324 161.527 311.854 160.92 314.697 160.92C317.574 160.92 320.122 161.527 322.341 162.74C324.594 163.953 326.345 165.617 327.593 167.732C328.876 169.847 329.517 172.308 329.517 175.116C329.517 177.855 328.876 180.299 327.593 182.448C326.345 184.597 324.594 186.296 322.341 187.544C320.122 188.757 317.574 189.364 314.697 189.364ZM314.697 183.8C316.292 183.8 317.713 183.453 318.961 182.76C320.209 182.067 321.18 181.061 321.873 179.744C322.601 178.427 322.965 176.884 322.965 175.116C322.965 173.313 322.601 171.771 321.873 170.488C321.18 169.171 320.209 168.165 318.961 167.472C317.713 166.779 316.309 166.432 314.749 166.432C313.154 166.432 311.733 166.779 310.485 167.472C309.272 168.165 308.301 169.171 307.573 170.488C306.845 171.771 306.481 173.313 306.481 175.116C306.481 176.884 306.845 178.427 307.573 179.744C308.301 181.061 309.272 182.067 310.485 182.76C311.733 183.453 313.137 183.8 314.697 183.8ZM335.733 189V150.416H342.233V189H335.733ZM377.043 189.52C374.2 189.52 371.479 189.121 368.879 188.324C366.279 187.492 364.216 186.435 362.691 185.152L365.031 179.9C366.487 181.044 368.29 181.997 370.439 182.76C372.588 183.523 374.79 183.904 377.043 183.904C378.95 183.904 380.492 183.696 381.671 183.28C382.85 182.864 383.716 182.309 384.271 181.616C384.826 180.888 385.103 180.073 385.103 179.172C385.103 178.063 384.704 177.179 383.907 176.52C383.11 175.827 382.07 175.289 380.787 174.908C379.539 174.492 378.135 174.111 376.575 173.764C375.05 173.417 373.507 173.019 371.947 172.568C370.422 172.083 369.018 171.476 367.735 170.748C366.487 169.985 365.464 168.98 364.667 167.732C363.87 166.484 363.471 164.889 363.471 162.948C363.471 160.972 363.991 159.169 365.031 157.54C366.106 155.876 367.718 154.559 369.867 153.588C372.051 152.583 374.807 152.08 378.135 152.08C380.319 152.08 382.486 152.357 384.635 152.912C386.784 153.467 388.656 154.264 390.251 155.304L388.119 160.556C386.49 159.585 384.808 158.875 383.075 158.424C381.342 157.939 379.678 157.696 378.083 157.696C376.211 157.696 374.686 157.921 373.507 158.372C372.363 158.823 371.514 159.412 370.959 160.14C370.439 160.868 370.179 161.7 370.179 162.636C370.179 163.745 370.56 164.647 371.323 165.34C372.12 165.999 373.143 166.519 374.391 166.9C375.674 167.281 377.095 167.663 378.655 168.044C380.215 168.391 381.758 168.789 383.283 169.24C384.843 169.691 386.247 170.28 387.495 171.008C388.778 171.736 389.8 172.724 390.563 173.972C391.36 175.22 391.759 176.797 391.759 178.704C391.759 180.645 391.222 182.448 390.147 184.112C389.107 185.741 387.495 187.059 385.311 188.064C383.127 189.035 380.371 189.52 377.043 189.52ZM408.29 189.364C405.24 189.364 402.882 188.584 401.218 187.024C399.554 185.429 398.722 183.089 398.722 180.004V155.096H405.222V179.848C405.222 181.165 405.552 182.188 406.21 182.916C406.904 183.644 407.857 184.008 409.07 184.008C410.526 184.008 411.74 183.627 412.71 182.864L414.53 187.492C413.768 188.116 412.832 188.584 411.722 188.896C410.613 189.208 409.469 189.364 408.29 189.364ZM394.146 166.64V161.44H412.658V166.64H394.146ZM431.443 189.364C428.601 189.364 426.07 188.757 423.851 187.544C421.633 186.296 419.882 184.597 418.599 182.448C417.317 180.299 416.675 177.855 416.675 175.116C416.675 172.343 417.317 169.899 418.599 167.784C419.882 165.635 421.633 163.953 423.851 162.74C426.07 161.527 428.601 160.92 431.443 160.92C434.321 160.92 436.869 161.527 439.087 162.74C441.341 163.953 443.091 165.617 444.339 167.732C445.622 169.847 446.263 172.308 446.263 175.116C446.263 177.855 445.622 180.299 444.339 182.448C443.091 184.597 441.341 186.296 439.087 187.544C436.869 188.757 434.321 189.364 431.443 189.364ZM431.443 183.8C433.038 183.8 434.459 183.453 435.707 182.76C436.955 182.067 437.926 181.061 438.619 179.744C439.347 178.427 439.711 176.884 439.711 175.116C439.711 173.313 439.347 171.771 438.619 170.488C437.926 169.171 436.955 168.165 435.707 167.472C434.459 166.779 433.055 166.432 431.495 166.432C429.901 166.432 428.479 166.779 427.231 167.472C426.018 168.165 425.047 169.171 424.319 170.488C423.591 171.771 423.227 173.313 423.227 175.116C423.227 176.884 423.591 178.427 424.319 179.744C425.047 181.061 426.018 182.067 427.231 182.76C428.479 183.453 429.883 183.8 431.443 183.8ZM452.479 189V161.232H458.667V168.876L457.939 166.64C458.771 164.768 460.071 163.347 461.839 162.376C463.642 161.405 465.878 160.92 468.547 160.92V167.108C468.27 167.039 468.01 167.004 467.767 167.004C467.524 166.969 467.282 166.952 467.039 166.952C464.578 166.952 462.619 167.68 461.163 169.136C459.707 170.557 458.979 172.689 458.979 175.532V189H452.479ZM486.859 189.364C483.774 189.364 481.07 188.757 478.747 187.544C476.459 186.296 474.674 184.597 473.391 182.448C472.143 180.299 471.519 177.855 471.519 175.116C471.519 172.343 472.126 169.899 473.339 167.784C474.587 165.635 476.286 163.953 478.435 162.74C480.619 161.527 483.098 160.92 485.871 160.92C488.575 160.92 490.984 161.509 493.099 162.688C495.214 163.867 496.878 165.531 498.091 167.68C499.304 169.829 499.911 172.36 499.911 175.272C499.911 175.549 499.894 175.861 499.859 176.208C499.859 176.555 499.842 176.884 499.807 177.196H476.667V172.88H496.375L493.827 174.232C493.862 172.637 493.532 171.233 492.839 170.02C492.146 168.807 491.192 167.853 489.979 167.16C488.8 166.467 487.431 166.12 485.871 166.12C484.276 166.12 482.872 166.467 481.659 167.16C480.48 167.853 479.544 168.824 478.851 170.072C478.192 171.285 477.863 172.724 477.863 174.388V175.428C477.863 177.092 478.244 178.565 479.007 179.848C479.77 181.131 480.844 182.119 482.231 182.812C483.618 183.505 485.212 183.852 487.015 183.852C488.575 183.852 489.979 183.609 491.227 183.124C492.475 182.639 493.584 181.876 494.555 180.836L498.039 184.84C496.791 186.296 495.214 187.423 493.307 188.22C491.435 188.983 489.286 189.364 486.859 189.364Z" fill="#6C5FBC"/>
</svg>
