<svg width="800" height="800" viewBox="0 0 564 718" fill="none" xmlns="http://www.w3.org/2000/svg">
<path d="M103.794 717.857H287.276C269.531 702.79 254.464 684.71 243.414 663.951H106.807C72.3214 663.951 53.9057 646.206 53.9057 612.723V106.139C53.9057 72.9914 71.9857 53.9071 106.807 53.9071H456.696C490.179 53.9071 509.263 72.6571 509.263 106.139V398.103C530.021 409.151 548.103 423.884 563.17 441.63V105.134C563.17 35.1557 528.683 0 459.374 0H103.794C34.8214 0 0 35.4914 0 105.134V613.059C0 683.036 34.8214 717.857 103.794 717.857ZM155.021 190.514H408.817C420.536 190.514 429.576 181.139 429.576 169.42C429.576 158.036 420.536 149.33 408.817 149.33H155.021C142.634 149.33 133.929 158.036 133.929 169.42C133.929 181.139 142.634 190.514 155.021 190.514ZM155.021 307.366H408.817C420.536 307.366 429.576 297.991 429.576 286.273C429.576 274.889 420.536 266.183 408.817 266.183H155.021C142.634 266.183 133.929 274.889 133.929 286.273C133.929 297.991 142.634 307.366 155.021 307.366Z" fill="#6C5FBC"/>
<path d="M332 718V683.2L443.2 577.6C452.533 568.8 459.467 561.067 464 554.4C468.533 547.733 471.467 541.6 472.8 536C474.4 530.133 475.2 524.667 475.2 519.6C475.2 506.8 470.8 496.933 462 490C453.2 482.8 440.267 479.2 423.2 479.2C409.6 479.2 397.2 481.6 386 486.4C375.067 491.2 365.6 498.533 357.6 508.4L321.2 480.4C332.133 465.733 346.8 454.4 365.2 446.4C383.867 438.133 404.667 434 427.6 434C447.867 434 465.467 437.333 480.4 444C495.6 450.4 507.2 459.6 515.2 471.6C523.467 483.6 527.6 497.867 527.6 514.4C527.6 523.467 526.4 532.533 524 541.6C521.6 550.4 517.067 559.733 510.4 569.6C503.733 579.467 494 590.533 481.2 602.8L385.6 693.6L374.8 674H538.4V718H332Z" fill="#6C5FBC"/>
</svg>
