<?xml version="1.0" encoding="utf-8"?>
<svg width="50px" height="50px" viewBox="0 0 50 50" version="1.1" xmlns:xlink="http://www.w3.org/1999/xlink" xmlns="http://www.w3.org/2000/svg">
  <defs>
    <path d="M50 0L50 0L50 50L0 50L0 0L50 0Z" id="path_1" />
    <clipPath id="clip_1">
      <use xlink:href="#path_1" clip-rule="evenodd" fill-rule="evenodd" />
    </clipPath>
  </defs>
  <g>
    <path d="M50 0L50 0L50 50L0 50L0 0L50 0Z" id="Google-Translate" fill="none" stroke="none" />
    <path d="M6 3C4.30078 3 3 4.30078 3 6L3 26C3 27.6992 4.30078 29 6 29L6.40625 29L8 27L6 27C5.39844 27 5 26.6016 5 26L5 6C5 5.39844 5.39844 5 6 5L26 5C26.6016 5 27 5.39844 27 6L27 21L24 21C22.3008 21 21 22.3008 21 24L21 27L16 27L17.5938 29L21 29L21 32.4062L23 34.0938L23 24C23 23.3984 23.3984 23 24 23L44 23C44.6016 23 45 23.3984 45 24L45 44C45 44.6016 44.6016 45 44 45L24 45C23.3984 45 23 44.6016 23 44L23 42L21 43.6875L21 44C21 45.6992 22.3008 47 24 47L44 47C45.6992 47 47 45.6992 47 44L47 24C47 22.3008 45.6992 21 44 21L29 21L29 6C29 4.30078 27.6992 3 26 3L6 3ZM16 8L16 10L8 10L8 12L19.9062 12C19.5977 14.2266 18.293 16.0547 16.6562 17.5312C14.1484 15.332 12.875 13.0312 12.875 13.0312L11.125 13.9688C11.125 13.9688 12.4336 16.3789 15.0625 18.7812C14.9961 18.8281 14.9414 18.8906 14.875 18.9375C12.2344 20.7578 9.59375 21.6562 9.59375 21.6562L10.2188 23.5625C10.2188 23.5625 13.125 22.5977 16.0312 20.5938C16.2383 20.4492 16.4492 20.2812 16.6562 20.125C17.7969 20.9688 19.125 21.7422 20.625 22.3438L21.375 20.4688C20.2266 20.0117 19.1992 19.418 18.2812 18.7812C20.1094 17.0508 21.6367 14.793 21.9375 12L25 12L25 10L18 10L18 8L16 8ZM12 25L7 31L10 31L10 35L14 35L14 31L17 31L12 25ZM33 26.4062L27.8125 40.1875L30.3125 40.1875L31.4062 37L36.6875 37L37.8125 40.1875L40.3125 40.1875L35.0938 26.4062L33 26.4062ZM34 29.4062L36 35.0938L32 35.0938L34 29.4062ZM19 33L19 36L10 36L14 40L19 40L19 43L25 38L19 33Z" id="Shape" fill="#6C5FBC" fill-rule="evenodd" stroke="none" clip-path="url(#clip_1)" />
    <path d="M6 3C4.30078 3 3 4.30078 3 6L3 26C3 27.6992 4.30078 29 6 29L6.40625 29L8 27L6 27C5.39844 27 5 26.6016 5 26L5 6C5 5.39844 5.39844 5 6 5L26 5C26.6016 5 27 5.39844 27 6L27 21L24 21C22.3008 21 21 22.3008 21 24L21 27L16 27L17.5938 29L21 29L21 32.4062L23 34.0938L23 24C23 23.3984 23.3984 23 24 23L44 23C44.6016 23 45 23.3984 45 24L45 44C45 44.6016 44.6016 45 44 45L24 45C23.3984 45 23 44.6016 23 44L23 42L21 43.6875L21 44C21 45.6992 22.3008 47 24 47L44 47C45.6992 47 47 45.6992 47 44L47 24C47 22.3008 45.6992 21 44 21L29 21L29 6C29 4.30078 27.6992 3 26 3L6 3ZM16 8L16 10L8 10L8 12L19.9062 12C19.5977 14.2266 18.293 16.0547 16.6562 17.5312C14.1484 15.332 12.875 13.0312 12.875 13.0312L11.125 13.9688C11.125 13.9688 12.4336 16.3789 15.0625 18.7812C14.9961 18.8281 14.9414 18.8906 14.875 18.9375C12.2344 20.7578 9.59375 21.6562 9.59375 21.6562L10.2188 23.5625C10.2188 23.5625 13.125 22.5977 16.0312 20.5938C16.2383 20.4492 16.4492 20.2812 16.6562 20.125C17.7969 20.9688 19.125 21.7422 20.625 22.3438L21.375 20.4688C20.2266 20.0117 19.1992 19.418 18.2812 18.7812C20.1094 17.0508 21.6367 14.793 21.9375 12L25 12L25 10L18 10L18 8L16 8ZM12 25L7 31L10 31L10 35L14 35L14 31L17 31L12 25ZM33 26.4062L27.8125 40.1875L30.3125 40.1875L31.4062 37L36.6875 37L37.8125 40.1875L40.3125 40.1875L35.0938 26.4062L33 26.4062ZM34 29.4062L36 35.0938L32 35.0938L34 29.4062ZM19 33L19 36L10 36L14 40L19 40L19 43L25 38L19 33Z" id="Shape" fill="#6C5FBC" fill-rule="evenodd" stroke="none" clip-path="url(#clip_1)" />
  </g>
</svg>