<?xml version="1.0" encoding="iso-8859-1"?>
<svg xmlns="http://www.w3.org/2000/svg" xmlns:xlink="http://www.w3.org/1999/xlink" version="1.1" id="Layer_1" viewBox="0 0 542 542" xml:space="preserve">
<g transform="translate(14 14)">
	<path style="fill: none; stroke: #6c5fbc; stroke-linecap: round; stroke-linejoin: round; stroke-width: 30;" d="M276.187,502.661l74.332-102.923c8.429-11.678,0.088-27.99-14.309-27.99   h-53.747v-97.096h79.443c58.505,0,105.924-47.428,105.924-105.924V133.42c25.211-10.213,43.236-33.305,44.136-61.781   c1.103-34.858-24.274-64.022-58.699-69.653c-44.267-7.23-82.532,26.737-82.532,69.645c0,29.623,18.272,51.311,44.135,61.789v35.308   c0,29.253-23.709,52.962-52.962,52.962h-79.443v-88.27c25.21-10.213,43.235-33.304,44.135-61.78   c1.103-34.858-24.274-64.022-58.699-69.653c-44.267-7.23-82.532,26.737-82.532,69.645c0,29.623,18.272,51.311,44.135,61.789v88.27   H150.06c-29.244,0-52.962-23.709-52.962-52.962v-35.308c25.21-10.213,43.235-33.304,44.135-61.78   c1.103-34.858-24.274-64.022-58.699-69.653C38.265-5.244,0,28.722,0,71.63c0,29.623,18.272,51.311,44.135,61.789v35.308   c0,58.496,47.428,105.924,105.924,105.924h70.616v97.096h-44.912c-14.406,0-22.747,16.312-14.317,27.99l74.341,102.923   C245.734,516.431,266.24,516.431,276.187,502.661"/>
</g>
</svg>