<svg width="120" height="120" viewBox="0 0 120 120" fill="none" xmlns="http://www.w3.org/2000/svg">
<path d="M70.3901 7.3775L71.9238 5.82743C72.2377 5.51064 72.4866 5.13444 72.6565 4.72032C72.8264 4.30621 72.9138 3.86231 72.9138 3.41401C72.9138 2.96572 72.8264 2.52182 72.6565 2.10771C72.4866 1.69359 72.2377 1.31739 71.9238 1.0006C71.6104 0.683401 71.2381 0.431758 70.8284 0.260065C70.4187 0.0883732 69.9795 0 69.5359 0C69.0923 0 68.6531 0.0883732 68.2434 0.260065C67.8337 0.431758 67.4614 0.683401 67.148 1.0006L65.6143 2.55068C64.982 3.19131 64.627 4.05923 64.627 4.96409C64.627 5.86895 64.982 6.73687 65.6143 7.3775C66.2482 8.01653 67.1069 8.3754 68.0022 8.3754C68.8975 8.3754 69.7563 8.01653 70.3901 7.3775Z" fill="#6C5FBC"/>
<path d="M28.393 102.683C27.7591 102.044 26.9004 101.686 26.0051 101.686C25.1098 101.686 24.251 102.044 23.6172 102.683L21.3522 104.992C20.7193 105.632 20.364 106.5 20.3643 107.405C20.3646 108.31 20.7205 109.178 21.3538 109.817C21.9871 110.457 22.8459 110.816 23.7413 110.816C24.6366 110.816 25.4951 110.456 26.128 109.816L28.393 107.51C28.7068 107.193 28.9558 106.817 29.1257 106.403C29.2956 105.989 29.383 105.545 29.383 105.097C29.383 104.649 29.2956 104.205 29.1257 103.791C28.9558 103.376 28.7068 103 28.393 102.683Z" fill="#6C5FBC"/>
<path d="M114.292 49.8869L112.011 52.176C111.685 52.4901 111.424 52.8669 111.244 53.2843C111.064 53.7017 110.969 54.1514 110.963 54.6067C110.958 55.062 111.042 55.5138 111.212 55.9356C111.382 56.3573 111.634 56.7404 111.952 57.0624C112.271 57.3844 112.65 57.6387 113.067 57.8104C113.485 57.9821 113.932 58.0677 114.382 58.0621C114.833 58.0566 115.277 57.96 115.69 57.7781C116.103 57.5962 116.476 57.3326 116.787 57.0028L119.068 54.6974C119.676 54.0521 120.011 53.1922 120 52.3012C119.989 51.4102 119.634 50.5588 119.011 49.9287C118.387 49.2986 117.545 48.9398 116.663 48.929C115.782 48.9181 114.931 49.256 114.292 49.8705V49.8869Z" fill="#6C5FBC"/>
<path d="M10.2206 87.492L11.4275 86.2755C12.0356 85.6302 12.3699 84.7703 12.3592 83.8793C12.3484 82.9883 11.9934 82.1369 11.37 81.5068C10.7466 80.8767 9.90415 80.518 9.02258 80.5071C8.141 80.4962 7.29016 80.8341 6.65173 81.4487L5.44483 82.6652C5.11858 82.9792 4.85778 83.356 4.67778 83.7735C4.49779 84.1909 4.40223 84.6405 4.39674 85.0958C4.39124 85.5511 4.47592 86.003 4.6458 86.4247C4.81567 86.8465 5.0673 87.2296 5.38588 87.5516C5.70446 87.8736 6.08355 88.1279 6.50084 88.2996C6.91812 88.4713 7.36518 88.5568 7.81568 88.5513C8.26619 88.5457 8.71104 88.4492 9.12406 88.2672C9.53709 88.0853 9.90993 87.8217 10.2206 87.492Z" fill="#6C5FBC"/>
<path d="M104.278 21.3898L100.231 25.4808C99.5921 26.0954 98.7413 26.4333 97.8597 26.4224C96.9781 26.4116 96.1357 26.0528 95.5123 25.4227C94.8889 24.7926 94.5339 23.9412 94.5231 23.0502C94.5124 22.1592 94.8467 21.2993 95.4547 20.654L99.1402 16.9293C99.4539 16.6123 99.7029 16.236 99.8728 15.8219C100.043 15.4077 100.13 14.9637 100.13 14.5154C100.131 14.067 100.043 13.623 99.8737 13.2087C99.7041 12.7944 99.4553 12.418 99.1418 12.1008C98.8282 11.7837 98.4559 11.532 98.0461 11.3603C97.6363 11.1886 97.197 11.1001 96.7534 11.1C96.3098 11.0998 95.8704 11.188 95.4605 11.3594C95.0506 11.5309 94.6781 11.7822 94.3643 12.0992L86.8673 19.6795C86.554 19.9964 86.1819 20.2479 85.7724 20.4195C85.3629 20.5911 84.9239 20.6795 84.4806 20.6797C84.0373 20.6798 83.5983 20.5917 83.1886 20.4204C82.779 20.2491 82.4067 19.9979 82.0932 19.6811C81.7796 19.3644 81.5308 18.9884 81.361 18.5745C81.1912 18.1606 81.1037 17.7169 81.1036 17.2689C81.1034 16.8208 81.1906 16.3771 81.3601 15.9631C81.5296 15.5491 81.7782 15.1729 82.0915 14.856L87.563 9.32277C87.8769 9.00598 88.1258 8.62978 88.2957 8.21566C88.4656 7.80155 88.553 7.35765 88.553 6.90935C88.553 6.46106 88.4656 6.01716 88.2957 5.60305C88.1258 5.18893 87.8769 4.81273 87.563 4.49594C86.9292 3.85691 86.0704 3.49805 85.1751 3.49805C84.2798 3.49805 83.4211 3.85691 82.7872 4.49594L67.557 19.8888C66.9186 20.5033 66.0677 20.8412 65.1862 20.8304C64.3046 20.8195 63.4622 20.4607 62.8387 19.8307C62.2153 19.2006 61.8603 18.3491 61.8496 17.4581C61.8388 16.5672 62.1732 15.7072 62.7812 15.062L63.1921 14.6499C63.5066 14.333 63.7562 13.9566 63.9267 13.5421C64.0971 13.1277 64.1852 12.6834 64.1858 12.2346C64.1864 11.7858 64.0995 11.3412 63.9302 10.9264C63.7608 10.5115 63.5122 10.1344 63.1986 9.81657C62.885 9.49877 62.5126 9.24652 62.1025 9.0742C61.6925 8.90188 61.2529 8.81288 60.8088 8.81227C60.3647 8.81167 59.9249 8.89947 59.5144 9.07066C59.1039 9.24186 58.7308 9.49309 58.4163 9.81003L51.3659 16.9489C51.0521 17.2658 50.6796 17.5172 50.2697 17.6886C49.8597 17.8601 49.4204 17.9482 48.9768 17.9481C48.5332 17.9479 48.0939 17.8595 47.6841 17.6877C47.2743 17.516 46.902 17.2644 46.5884 16.9472C45.9551 16.3067 45.5995 15.4382 45.5998 14.5327C45.6001 13.6272 45.9563 12.7589 46.59 12.1188L49.295 9.3849C49.6213 9.07086 49.8821 8.69404 50.0621 8.27661C50.2421 7.85918 50.3376 7.40957 50.3431 6.95425C50.3486 6.49893 50.2639 6.04711 50.0941 5.62536C49.9242 5.20362 49.6726 4.82048 49.354 4.4985C49.0354 4.17651 48.6563 3.92219 48.239 3.75051C47.8217 3.57882 47.3747 3.49323 46.9242 3.49878C46.4737 3.50434 46.0288 3.60091 45.6158 3.78283C45.2028 3.96475 44.8299 4.22834 44.5192 4.55808L3.61421 45.8902C2.98047 46.5316 2.62478 47.4011 2.62539 48.3076C2.626 49.214 2.98285 50.0831 3.61745 50.7236C4.25205 51.3641 5.11241 51.7236 6.00926 51.7229C6.90611 51.7223 7.76599 51.3617 8.39973 50.7203L10.8329 48.2578C11.1467 47.9409 11.5192 47.6895 11.9291 47.5181C12.3391 47.3467 12.7784 47.2585 13.222 47.2586C13.6656 47.2588 14.1049 47.3473 14.5147 47.519C14.9245 47.6907 15.2968 47.9423 15.6104 48.2595C15.924 48.5766 16.1727 48.9531 16.3423 49.3674C16.5119 49.7817 16.5991 50.2257 16.599 50.674C16.5988 51.1224 16.5113 51.5663 16.3414 51.9805C16.1715 52.3947 15.9225 52.771 15.6087 53.0879L1.04835 67.8038C0.722096 68.1179 0.461296 68.4947 0.281299 68.9121C0.101302 69.3296 0.00574426 69.7792 0.000251108 70.2345C-0.00524205 70.6898 0.0794401 71.1416 0.249313 71.5634C0.419186 71.9851 0.670818 72.3683 0.989397 72.6902C1.30798 73.0122 1.68707 73.2665 2.10435 73.4382C2.52164 73.6099 2.96869 73.6955 3.4192 73.69C3.8697 73.6844 4.31456 73.5878 4.72758 73.4059C5.1406 73.224 5.51344 72.9604 5.82416 72.6307L13.5056 64.8672C14.144 64.2527 14.9949 63.9148 15.8764 63.9256C16.758 63.9365 17.6004 64.2953 18.2239 64.9253C18.8473 65.5554 19.2023 66.4069 19.213 67.2978C19.2238 68.1888 18.8894 69.0488 18.2814 69.694L13.25 74.7759C12.6177 75.4166 12.2626 76.2845 12.2626 77.1893C12.2626 78.0942 12.6177 78.9621 13.25 79.6027C13.5634 79.9199 13.9356 80.1716 14.3454 80.3433C14.7551 80.515 15.1943 80.6033 15.6379 80.6033C16.0814 80.6033 16.5206 80.515 16.9304 80.3433C17.3401 80.1716 17.7123 79.9199 18.0258 79.6027L19.8636 77.7453C20.1772 77.4279 20.5496 77.1761 20.9594 77.0042C21.3693 76.8322 21.8087 76.7436 22.2525 76.7433C22.6962 76.743 23.1357 76.831 23.5458 77.0024C23.956 77.1737 24.3287 77.4251 24.6427 77.742C24.9567 78.0589 25.2058 78.4353 25.3759 78.8495C25.5461 79.2638 25.6338 79.7078 25.6341 80.1564C25.6344 80.6049 25.5472 81.0491 25.3777 81.4636C25.2082 81.878 24.9595 82.2547 24.6459 82.5721L13.2985 94.0342C12.6905 94.6794 12.3561 95.5393 12.3669 96.4303C12.3776 97.3213 12.7326 98.1728 13.356 98.8028C13.9794 99.4329 14.8219 99.7917 15.7035 99.8025C16.585 99.8134 17.4359 99.4755 18.0743 98.861L27.5062 89.3316C28.1395 88.692 28.9983 88.3328 29.8936 88.3331C30.789 88.3334 31.6475 88.6932 32.2804 89.3332C32.9133 89.9733 33.2687 90.8413 33.2684 91.7462C33.2681 92.6511 32.9121 93.5188 32.2788 94.1584L29.6903 96.7746C29.0822 97.4198 28.7479 98.2798 28.7587 99.1708C28.7694 100.062 29.1244 100.913 29.7478 101.543C30.3712 102.173 31.2137 102.532 32.0952 102.543C32.9768 102.554 33.8277 102.216 34.4661 101.601L42.4711 93.5273C43.1552 92.9985 44.0127 92.7524 44.8697 92.8388C45.7267 92.9252 46.5191 93.3377 47.0865 93.9926C47.6538 94.6475 47.9536 95.4959 47.9251 96.3658C47.8966 97.2358 47.542 98.0623 46.933 98.6778L34.1069 111.641C33.7612 111.95 33.4817 112.327 33.2858 112.75C33.0899 113.172 32.9818 113.63 32.968 114.097C32.9542 114.563 33.0351 115.027 33.2057 115.461C33.3764 115.894 33.633 116.288 33.9599 116.617C34.2869 116.946 34.6771 117.204 35.1065 117.375C35.5359 117.546 35.9955 117.626 36.4568 117.611C36.9181 117.595 37.3713 117.484 37.7886 117.285C38.2058 117.086 38.5782 116.802 38.8827 116.451L54.9671 100.195C55.2807 99.8785 55.6529 99.6273 56.0626 99.456C56.4722 99.2847 56.9112 99.1966 57.3546 99.1967C57.7979 99.1969 58.2368 99.2853 58.6464 99.4569C59.0559 99.6285 59.4279 99.8799 59.7413 100.197C60.0547 100.514 60.3032 100.89 60.4727 101.304C60.6423 101.718 60.7294 102.162 60.7293 102.61C60.7291 103.058 60.6417 103.501 60.4719 103.915C60.3021 104.329 60.0533 104.705 59.7397 105.022L50.6314 114.231C50.0233 114.876 49.689 115.736 49.6997 116.627C49.7105 117.518 50.0655 118.37 50.6889 119C51.3123 119.63 52.1547 119.988 53.0363 119.999C53.9179 120.01 54.7687 119.672 55.4072 119.058L71.3751 102.916C71.9948 102.695 72.6641 102.656 73.3047 102.805C73.9453 102.954 74.5307 103.284 74.9925 103.756C75.3145 104.072 75.5714 104.448 75.7482 104.865C75.925 105.281 76.0182 105.729 76.0224 106.182C76.0266 106.635 75.9417 107.084 75.7727 107.504C75.6037 107.923 75.3539 108.305 75.0378 108.626L71.5627 112.141C70.9313 112.801 70.5816 113.685 70.5891 114.603C70.5967 115.521 70.9608 116.399 71.603 117.048C72.2453 117.697 73.1142 118.065 74.0224 118.073C74.9306 118.081 75.8055 117.727 76.4583 117.089L116.16 76.9637C116.776 76.3014 117.114 75.4225 117.1 74.5131C117.087 73.6037 116.724 72.7353 116.087 72.092C115.451 71.4487 114.592 71.081 113.693 71.0668C112.793 71.0525 111.923 71.393 111.267 72.0159L108.252 75.0604C107.934 75.38 107.556 75.6325 107.14 75.8034C106.725 75.9742 106.28 76.06 105.832 76.0558C105.383 76.0515 104.94 75.9573 104.528 75.7786C104.116 75.5998 103.743 75.3402 103.431 75.0146C102.964 74.548 102.638 73.9567 102.491 73.3099C102.345 72.663 102.383 71.9874 102.602 71.3618L110.601 63.2746C111.234 62.635 111.59 61.7673 111.59 60.8624C111.591 59.9575 111.235 59.0895 110.602 58.4494C110.289 58.1325 109.917 57.881 109.507 57.7094C109.098 57.5378 108.659 57.4494 108.216 57.4493C107.32 57.449 106.462 57.8081 105.828 58.4478L101.771 62.5486C101.132 63.1631 100.281 63.5011 99.3999 63.4902C98.5183 63.4793 97.6759 63.1205 97.0524 62.4905C96.429 61.8604 96.074 61.009 96.0633 60.118C96.0525 59.227 96.3869 58.367 96.9949 57.7218L116.215 38.287C116.541 37.9729 116.802 37.5961 116.982 37.1787C117.162 36.7612 117.257 36.3116 117.263 35.8563C117.268 35.401 117.184 34.9492 117.014 34.5274C116.844 34.1057 116.592 33.7225 116.274 33.4006C115.955 33.0786 115.576 32.8243 115.159 32.6526C114.741 32.4809 114.294 32.3953 113.844 32.4009C113.393 32.4064 112.948 32.503 112.535 32.6849C112.122 32.8668 111.75 33.1304 111.439 33.4601L107.126 37.8193C106.517 38.4348 105.699 38.7932 104.838 38.822C103.977 38.8508 103.138 38.5478 102.49 37.9744C101.842 37.401 101.434 36.6001 101.348 35.7339C101.263 34.8678 101.506 34.0012 102.03 33.3097L109.048 26.2166C109.374 25.9026 109.635 25.5258 109.815 25.1084C109.995 24.6909 110.09 24.2413 110.096 23.786C110.101 23.3307 110.017 22.8789 109.847 22.4571C109.677 22.0354 109.425 21.6522 109.107 21.3302C108.788 21.0083 108.409 20.7539 107.992 20.5823C107.574 20.4106 107.127 20.325 106.677 20.3305C106.226 20.3361 105.781 20.4327 105.368 20.6146C104.955 20.7965 104.583 21.0601 104.272 21.3898H104.278Z" fill="#6C5FBC"/>
<path d="M27.3516 18.386L30.4093 15.2989C30.7819 14.9223 31.0775 14.4751 31.2792 13.9831C31.4809 13.491 31.5847 12.9636 31.5847 12.4309C31.5847 11.8983 31.4809 11.3709 31.2792 10.8788C31.0775 10.3867 30.7819 9.93958 30.4093 9.56295C30.0367 9.18632 29.5943 8.88757 29.1074 8.68374C28.6205 8.47991 28.0986 8.375 27.5716 8.375C27.0446 8.375 26.5228 8.47991 26.0359 8.68374C25.549 8.88757 25.1066 9.18632 24.734 9.56295L21.6795 12.6533C20.9602 13.4202 20.5655 14.4406 20.5795 15.4972C20.5934 16.5538 21.0149 17.5632 21.7542 18.3105C22.4936 19.0577 23.4923 19.4837 24.5377 19.4978C25.5832 19.5119 26.5928 19.113 27.3516 18.386Z" fill="#6C5FBC"/>
<path d="M94.1801 103.751L90.2779 107.698C88.6601 109.333 88.5242 112.038 90.1259 113.709C90.5101 114.11 90.9695 114.43 91.4773 114.649C91.9851 114.869 92.5311 114.985 93.0835 114.989C93.6358 114.993 94.1835 114.886 94.6945 114.674C95.2056 114.462 95.6698 114.15 96.06 113.755L99.9655 109.811C101.583 108.176 101.716 105.468 100.118 103.8C99.733 103.399 99.2734 103.079 98.7655 102.86C98.2576 102.64 97.7115 102.524 97.159 102.52C96.6065 102.515 96.0586 102.622 95.5472 102.833C95.0358 103.044 94.5711 103.357 94.1801 103.751Z" fill="#6C5FBC"/>
<path fill-rule="evenodd" clip-rule="evenodd" d="M29.7148 37.3325V42.4013H60.4535H91.1921V37.3325V32.2637H60.4535H29.7148V37.3325ZM70.484 37.9865C70.484 39.0765 70.538 39.1311 71.6164 39.1311C72.6949 39.1311 72.7489 39.0765 72.7489 37.9865C72.7489 36.8966 72.6949 36.842 71.6164 36.842C70.538 36.842 70.484 36.8966 70.484 37.9865ZM76.6317 37.9865C76.6317 39.104 76.6624 39.1311 77.9259 39.1311C79.1895 39.1311 79.2202 39.104 79.2202 37.9865C79.2202 36.8691 79.1895 36.842 77.9259 36.842C76.6624 36.842 76.6317 36.8691 76.6317 37.9865ZM83.103 37.9865C83.103 39.0765 83.157 39.1311 84.2355 39.1311C85.3139 39.1311 85.3679 39.0765 85.3679 37.9865C85.3679 36.8966 85.3139 36.842 84.2355 36.842C83.157 36.842 83.103 36.8966 83.103 37.9865ZM29.7148 60.3874V76.4114H35.539H41.3632V73.1412V69.871H43.2525C44.9842 69.871 45.1748 69.7984 45.5342 69.0012C45.8989 68.1924 45.829 68.0312 44.5422 66.7061L43.158 65.2806L46.9463 61.4519L50.7346 57.6231L52.145 59.0221C53.4561 60.3227 53.6156 60.3933 54.4158 60.0248C55.2046 59.6614 55.2764 59.4688 55.2764 57.7186V55.8091H60.6152H65.9541V57.7817C65.9541 59.5254 66.0385 59.7874 66.6821 60.0385C67.2875 60.2746 67.6427 60.0951 68.7911 58.9727L70.1724 57.6231L73.9607 61.4519L77.749 65.2806L76.4201 66.6767C75.2329 67.9239 75.1245 68.1682 75.4031 68.9717C75.6959 69.8161 75.8322 69.871 77.6292 69.871H79.5438V73.1412V76.4114H85.3679H91.1921V60.3874V44.3634H60.4535H29.7148V60.3874ZM56.5652 59.1611L56.5597 60.878L54.8021 61.5647L53.0445 62.2518L51.9939 61.1559C51.416 60.5536 50.7863 60.0604 50.5945 60.0604C50.4029 60.0604 49.0899 61.2361 47.6766 62.6727L45.1071 65.2849L46.3577 66.5792L47.6083 67.8739L46.9379 69.4446C46.2749 70.9973 46.247 71.0176 44.5432 71.1791L42.8192 71.3426L42.7283 75.1684L42.637 78.9942L44.4645 79.0927L46.2917 79.1911L46.9359 80.9403L47.5798 82.6893L46.4163 83.894L45.2524 85.0984L47.9953 87.8562L50.7384 90.6143L51.9699 89.3987L53.2014 88.1835L54.8859 88.9026L56.5707 89.6221V91.3556V93.0895H60.4535H64.3362V91.3556V89.6221L66.021 88.9026L67.7055 88.1835L68.937 89.3987L70.1685 90.6143L72.9117 87.8562L75.6545 85.0984L74.4839 83.8868L73.3135 82.6752L74.0613 80.8514L74.8094 79.0276H76.5294H78.2495V75.1197V71.2118L76.4359 71.1137L74.6224 71.0156L74.0134 69.39L73.4045 67.7644L74.602 66.5246L75.7998 65.2849L73.2304 62.6727C71.8171 61.2361 70.504 60.0604 70.3125 60.0604C70.1206 60.0604 69.4909 60.5536 68.9131 61.1559L67.8624 62.2518L66.1048 61.5647L64.3472 60.878L64.3417 59.1611L64.3362 57.4443H60.4535H56.5707L56.5652 59.1611ZM58.0267 64.9226C54.7885 65.7826 51.8742 68.3815 50.7394 71.4205C49.7781 73.9954 49.9522 77.488 51.161 79.8805C52.2243 81.9845 54.8231 84.3695 56.792 85.0474C58.7292 85.7145 62.1777 85.7145 64.1149 85.0474C66.0689 84.3744 68.6684 81.9996 69.7708 79.8805C70.5264 78.4278 70.6399 77.8261 70.6412 75.2669C70.6422 72.9378 70.4963 72.0032 69.942 70.788C69.0412 68.8128 66.8672 66.6247 64.8581 65.6708C63.1491 64.8594 59.6902 64.4804 58.0267 64.9226ZM59.3456 67.2274C58.6389 68.0165 57.5414 71.5323 57.5414 73.0068V74.1223H60.4839H63.4264L63.1934 72.412C63.0656 71.4715 62.755 70.1127 62.5036 69.3926C61.5445 66.6443 60.5056 65.9321 59.3456 67.2274ZM55.3466 68.2222C53.9071 69.2762 52.4905 71.4401 52.1657 73.082L51.9599 74.1223H53.7602H55.5602L55.7582 72.5689C55.8673 71.7148 56.2151 70.1693 56.5312 69.1352C56.8473 68.1012 57.0075 67.2549 56.8868 67.2549C56.7664 67.2549 56.0734 67.6901 55.3466 68.2222ZM63.6891 67.3971C63.6891 67.4753 63.8502 67.9537 64.047 68.4599C64.2437 68.9662 64.5805 70.4106 64.7954 71.6696L65.1859 73.9588L67.07 74.0582L68.9542 74.1576L68.7448 73.0997C68.4164 71.4414 67.0056 69.2804 65.5603 68.2222C64.3427 67.3307 63.6891 67.0426 63.6891 67.3971ZM52.0408 76.5854C52.0408 78.5492 54.1951 81.6922 56.3102 82.8145L57.1822 83.2772L56.5684 81.4734C56.2306 80.4815 55.8559 78.7895 55.7352 77.7136L55.5165 75.7574H53.7787C52.1346 75.7574 52.0408 75.8022 52.0408 76.5854ZM57.6433 77.8735C57.8695 80.3213 58.9673 83.152 59.8824 83.6471C61.229 84.3754 62.7812 81.5476 63.2507 77.5109L63.4545 75.7574H60.4512H57.4479L57.6433 77.8735ZM65.1992 75.9755C65.0804 76.0952 64.9834 76.7267 64.9834 77.3784C64.9834 78.4766 64.3686 81.3266 63.8269 82.7396C63.6079 83.3109 63.6487 83.3168 64.5559 82.8426C66.62 81.7638 68.8661 78.5031 68.8661 76.5854C68.8661 75.8029 68.7713 75.7574 67.1406 75.7574C66.1912 75.7574 65.3176 75.8555 65.1992 75.9755Z" fill="white"/>
</svg>
