<svg width="16" height="16" viewBox="0 0 16 16" fill="none" xmlns="http://www.w3.org/2000/svg">
<path fill-rule="evenodd" clip-rule="evenodd" d="M6.3999 8L3.33716 11.0627C2.73705 11.6629 2.3999 12.4768 2.3999 13.3255V14.4C2.3999 15.2837 3.11625 16 3.9999 16H11.9999C12.8836 16 13.5999 15.2837 13.5999 14.4V13.3255C13.5999 12.4768 13.2628 11.6629 12.6626 11.0627L9.5999 8L12.6626 4.93726C13.2628 4.33714 13.5999 3.52321 13.5999 2.67452V1.6C13.5999 0.716344 12.8836 0 11.9999 0H3.9999C3.11625 0 2.3999 0.716344 2.3999 1.6V2.67452C2.3999 3.52321 2.73705 4.33714 3.33716 4.93726L6.3999 8ZM7.9999 9.2284L11.2485 12.477C11.4735 12.702 11.5999 13.0072 11.5999 13.3255V14H4.3999V13.3255C4.3999 13.0072 4.52633 12.702 4.75137 12.477L7.9999 9.2284ZM7.9999 6.7716L4.75137 3.52305C4.52633 3.298 4.3999 2.99278 4.3999 2.67452V2H11.5999V2.67452C11.5999 2.99278 11.4735 3.298 11.2485 3.52305L7.9999 6.7716Z" fill="#8992AD"/>
</svg>
