<svg width="55" height="56" viewBox="0 0 55 56" fill="none" xmlns="http://www.w3.org/2000/svg">
<circle cx="27.5" cy="28" r="26" fill="#6c5fbc" fill-opacity="0.3" stroke="#6c5fbc" stroke-width="3"/>
<path fill-rule="evenodd" clip-rule="evenodd" d="M22.0856 18.8224C26.022 18.4803 29.9805 18.4803 33.9169 18.8224L35.8044 18.9874C36.6819 19.0638 37.5082 19.4334 38.1501 20.0365C38.792 20.6397 39.2123 21.4414 39.3431 22.3124C39.91 26.0829 39.91 29.9169 39.3431 33.6874C39.2931 34.0174 39.2031 34.3337 39.0781 34.6299C38.9956 34.8262 38.7406 34.8562 38.5956 34.6987L33.0694 28.6187C32.9472 28.4843 32.7885 28.3883 32.6128 28.3423C32.437 28.2964 32.2517 28.3025 32.0794 28.3599L28.9156 29.4149L24.3269 24.2524C24.242 24.1569 24.1385 24.0798 24.0227 24.0257C23.9069 23.9717 23.7813 23.9419 23.6536 23.9381C23.5259 23.9344 23.3988 23.9568 23.28 24.004C23.1613 24.0511 23.0535 24.1221 22.9631 24.2124L16.8206 30.3549C16.7789 30.3978 16.7256 30.4276 16.6672 30.4406C16.6087 30.4537 16.5478 30.4494 16.4918 30.4283C16.4358 30.4072 16.3872 30.3702 16.3519 30.3218C16.3166 30.2735 16.2962 30.2159 16.2931 30.1562C16.1453 27.5356 16.2676 24.9067 16.6581 22.3112C16.789 21.4401 17.2092 20.6384 17.8512 20.0353C18.4931 19.4321 19.3194 19.0626 20.1969 18.9862L22.0844 18.8237L22.0856 18.8224ZM30.5006 24.2499C30.5006 23.7526 30.6982 23.2757 31.0498 22.9241C31.4014 22.5725 31.8783 22.3749 32.3756 22.3749C32.8729 22.3749 33.3498 22.5725 33.7014 22.9241C34.0531 23.2757 34.2506 23.7526 34.2506 24.2499C34.2506 24.7472 34.0531 25.2241 33.7014 25.5758C33.3498 25.9274 32.8729 26.1249 32.3756 26.1249C31.8783 26.1249 31.4014 25.9274 31.0498 25.5758C30.6982 25.2241 30.5006 24.7472 30.5006 24.2499Z" fill="#6c5fbc"/>
<path d="M16.7018 33.1247C16.668 33.1588 16.6425 33.2002 16.6273 33.2457C16.6121 33.2912 16.6077 33.3397 16.6143 33.3872L16.6581 33.6872C16.7889 34.5583 17.2092 35.36 17.8511 35.9631C18.493 36.5663 19.3193 36.9358 20.1968 37.0122L22.0843 37.176C26.0218 37.5185 29.9793 37.5185 33.9168 37.176L35.8043 37.0122C36.322 36.9674 36.8255 36.82 37.2856 36.5785C37.4568 36.4897 37.4856 36.2635 37.3556 36.121L32.2306 30.4835C32.1899 30.4382 32.1369 30.4058 32.078 30.3903C32.0192 30.3747 31.9571 30.3767 31.8993 30.396L28.9218 31.3885C28.7477 31.4466 28.5604 31.4524 28.3831 31.405C28.2058 31.3577 28.0463 31.2594 27.9243 31.1222L23.8056 26.4885C23.7772 26.4566 23.7426 26.4309 23.704 26.4129C23.6653 26.395 23.6234 26.3851 23.5808 26.3839C23.5382 26.3827 23.4957 26.3903 23.4562 26.4061C23.4166 26.422 23.3806 26.4457 23.3506 26.476L16.7018 33.1247Z" fill="#6c5fbc"/>
</svg>
