<svg width="42" height="33" viewBox="0 0 42 33" fill="none" xmlns="http://www.w3.org/2000/svg">
<path fill-rule="evenodd" clip-rule="evenodd" d="M26.3453 32.1067C24.137 27.8374 23.0329 23.2001 23.0329 18.1948C23.0329 13.1158 24.3762 8.92017 27.0629 5.60781C29.7496 2.29545 33.9269 0.639269 39.5947 0.639269V7.59523C37.6073 7.59523 36.1535 8.03688 35.2334 8.92017C34.3133 9.80347 33.8533 11.4965 33.8533 13.9991V15.1032H41.9133V32.1067H26.3453ZM3.49121 32.1065C1.28298 27.8372 0.178864 23.1999 0.178864 18.1946C0.178864 13.1156 1.52221 8.91994 4.20889 5.60758C6.89558 2.29522 11.0728 0.639038 16.7406 0.639038V7.595C14.7532 7.595 13.2995 8.03665 12.3794 8.91994C11.4593 9.80324 10.9992 11.4962 10.9992 13.9989V15.103H19.0593V32.1065H3.49121Z" fill="#DADADA"/>
</svg>
