<svg width="99" height="17" viewBox="0 0 99 17" fill="none" xmlns="http://www.w3.org/2000/svg">
<path fill-rule="evenodd" clip-rule="evenodd" d="M8.58669 0.246073L10.9204 5.20567L16.1373 6.00117C16.2723 6.02216 16.3843 6.12132 16.4264 6.25711C16.4685 6.3929 16.4333 6.54188 16.3357 6.64166L12.5615 10.5013L13.4526 15.9523C13.476 16.0929 13.4209 16.2352 13.3106 16.3192C13.2003 16.4032 13.0538 16.4143 12.9331 16.3479L8.26666 13.7747L3.60027 16.3486C3.47956 16.4153 3.33305 16.4043 3.22265 16.3204C3.11224 16.2364 3.05719 16.094 3.08075 15.9534L3.97186 10.5013L0.19657 6.64166C0.0989282 6.54188 0.0637796 6.3929 0.105847 6.25711C0.147914 6.12132 0.259935 6.02216 0.394989 6.00117L5.61183 5.20567L7.94663 0.246073C8.00604 0.11783 8.13036 0.036377 8.26666 0.036377C8.40297 0.036377 8.52728 0.11783 8.58669 0.246073Z" fill="#F59E0B"/>
<path fill-rule="evenodd" clip-rule="evenodd" d="M29.0317 0.246073L31.3654 5.20567L36.5823 6.00117C36.7173 6.02216 36.8293 6.12132 36.8714 6.25711C36.9135 6.3929 36.8783 6.54188 36.7807 6.64166L33.0065 10.5013L33.8976 15.9523C33.921 16.0929 33.866 16.2352 33.7556 16.3192C33.6453 16.4032 33.4989 16.4143 33.3781 16.3479L28.7117 13.7747L24.0453 16.3486C23.9246 16.4153 23.7781 16.4043 23.6677 16.3204C23.5572 16.2364 23.5022 16.094 23.5258 15.9534L24.4169 10.5013L20.6416 6.64166C20.5439 6.54188 20.5088 6.3929 20.5509 6.25711C20.5929 6.12132 20.7049 6.02216 20.84 6.00117L26.0568 5.20567L28.3916 0.246073C28.4511 0.11783 28.5754 0.036377 28.7117 0.036377C28.848 0.036377 28.9723 0.11783 29.0317 0.246073Z" fill="#F59E0B"/>
<path fill-rule="evenodd" clip-rule="evenodd" d="M49.4757 0.246073L51.8095 5.20567L57.0263 6.00117C57.1614 6.02216 57.2734 6.12132 57.3154 6.25711C57.3575 6.3929 57.3224 6.54188 57.2247 6.64166L53.4505 10.5013L54.3416 15.9523C54.365 16.0929 54.31 16.2352 54.1996 16.3192C54.0893 16.4032 53.9429 16.4143 53.8221 16.3479L49.1557 13.7747L44.4893 16.3486C44.3686 16.4153 44.2221 16.4043 44.1117 16.3204C44.0013 16.2364 43.9462 16.094 43.9698 15.9534L44.8609 10.5013L41.0856 6.64166C40.988 6.54188 40.9528 6.3929 40.9949 6.25711C41.037 6.12132 41.149 6.02216 41.284 6.00117L46.5009 5.20567L48.8357 0.246073C48.8951 0.11783 49.0194 0.036377 49.1557 0.036377C49.292 0.036377 49.4163 0.11783 49.4757 0.246073Z" fill="#F59E0B"/>
<path fill-rule="evenodd" clip-rule="evenodd" d="M69.9217 0.246073L72.2554 5.20567L77.4723 6.00117C77.6073 6.02216 77.7193 6.12132 77.7614 6.25711C77.8035 6.3929 77.7683 6.54188 77.6707 6.64166L73.8965 10.5013L74.7876 15.9523C74.811 16.0929 74.7559 16.2352 74.6456 16.3192C74.5353 16.4032 74.3888 16.4143 74.268 16.3479L69.6017 13.7747L64.9353 16.3486C64.8145 16.4153 64.668 16.4043 64.5576 16.3204C64.4472 16.2364 64.3922 16.094 64.4157 15.9534L65.3068 10.5013L61.5316 6.64166C61.4339 6.54188 61.3988 6.3929 61.4408 6.25711C61.4829 6.12132 61.5949 6.02216 61.73 6.00117L66.9468 5.20567L69.2816 0.246073C69.341 0.11783 69.4653 0.036377 69.6017 0.036377C69.738 0.036377 69.8623 0.11783 69.9217 0.246073Z" fill="#F59E0B"/>
<path fill-rule="evenodd" clip-rule="evenodd" d="M90.3657 0.246073L92.6994 5.20567L97.9163 6.00117C98.0513 6.02216 98.1634 6.12132 98.2054 6.25711C98.2475 6.3929 98.2123 6.54188 98.1147 6.64166L94.3405 10.5013L95.2316 15.9523C95.255 16.0929 95.2 16.2352 95.0896 16.3192C94.9793 16.4032 94.8329 16.4143 94.7121 16.3479L90.0457 13.7747L85.3793 16.3486C85.2586 16.4153 85.1121 16.4043 85.0017 16.3204C84.8913 16.2364 84.8362 16.094 84.8598 15.9534L85.7509 10.5013L81.9756 6.64166C81.878 6.54188 81.8428 6.3929 81.8849 6.25711C81.9269 6.12132 82.039 6.02216 82.174 6.00117L87.3909 5.20567L89.7257 0.246073C89.7851 0.11783 89.9094 0.036377 90.0457 0.036377C90.182 0.036377 90.3063 0.11783 90.3657 0.246073Z" fill="#F59E0B"/>
</svg>
