<svg width="16" height="16" viewBox="0 0 16 16" fill="none" xmlns="http://www.w3.org/2000/svg">
<path fill-rule="evenodd" clip-rule="evenodd" d="M6.7412 1.38115C7.12502 1.16346 7.55963 1.05005 8.00022 1.05005C8.4408 1.05005 8.87541 1.16346 9.25923 1.38115C9.64015 1.5972 9.95917 1.90938 10.18 2.28933L15.7 11.4514C15.7235 11.4905 15.7442 11.5313 15.7619 11.5734C15.9191 11.9471 15.9794 12.3539 15.9362 12.7576C15.893 13.1611 15.748 13.5457 15.5169 13.878C15.2859 14.2101 14.9766 14.4791 14.6187 14.6646C14.2608 14.85 13.8635 14.9473 13.461 14.95L13.4546 14.9501V14.95H2.56143C2.54727 14.95 2.53318 14.9497 2.51917 14.9491C2.48935 14.9505 2.4592 14.9504 2.42879 14.9489C2.03571 14.9294 1.65133 14.8197 1.30757 14.6269C0.963677 14.4341 0.668997 14.1628 0.450762 13.8329C0.232389 13.5027 0.0976045 13.1244 0.0603618 12.7294C0.0231131 12.3343 0.0848455 11.9372 0.239019 11.5721C0.256607 11.5305 0.277146 11.4901 0.300479 11.4514L5.82048 2.28933C6.04126 1.90938 6.36028 1.5972 6.7412 1.38115ZM2.51869 13.051C2.53286 13.0504 2.54711 13.05 2.56143 13.05H13.4506C13.555 13.049 13.656 13.0234 13.7445 12.9776C13.8336 12.9314 13.9057 12.867 13.9571 12.7931C14.0083 12.7194 14.0382 12.6377 14.047 12.5553C14.0541 12.4894 14.0478 12.4225 14.0279 12.3579L8.54813 3.26259L8.53834 3.24596C8.49016 3.16218 8.41675 3.08764 8.32188 3.03383C8.22678 2.9799 8.11558 2.95005 8.00022 2.95005C7.88485 2.95005 7.77365 2.9799 7.67856 3.03383C7.58368 3.08764 7.51027 3.16218 7.46209 3.24596L7.4523 3.26259L1.97205 12.3587C1.95255 12.4217 1.94592 12.4868 1.95197 12.5511C1.95957 12.6317 1.98726 12.7118 2.03543 12.7846C2.08373 12.8576 2.15192 12.9221 2.23692 12.9697C2.32091 13.0168 2.4175 13.0453 2.51869 13.051ZM8.008 5.5649C8.53267 5.5649 8.958 5.99023 8.958 6.5149V8.50005C8.958 9.02472 8.53267 9.45005 8.008 9.45005C7.48333 9.45005 7.058 9.02472 7.058 8.50005V6.5149C7.058 5.99023 7.48333 5.5649 8.008 5.5649ZM8.008 10.056C8.53267 10.056 8.958 10.4813 8.958 11.006V11.0135C8.958 11.5381 8.53267 11.9635 8.008 11.9635C7.48333 11.9635 7.058 11.5381 7.058 11.0135V11.006C7.058 10.4813 7.48333 10.056 8.008 10.056Z" fill="#E62E6B"/>
</svg>
